# xmcd
#
# Track frame offsets: 
#        150
#        11399
#        26482
#        44112
#        61917
#        92743
#        124742
#        142849
#        159548
#        178273
#        207056
#
# Disc length: 2984 seconds
#
# Revision: 4
# Processed by: cddbd v1.5.2PL0 Copyright (c) Steve Scherf et al.
# Submitted via: ExactAudioCopy v1.1
#
DISCID=8f0ba60b
DTITLE=Coldplay - Viva la Vida or Death and All His Friends
DYEAR=2008
DGENRE=Rock
TTITLE0=Life in Technicolor
TTITLE1=Cemeteries of London
TTITLE2=Lost! 
TTITLE3=42
TTITLE4=Lovers in Japan／Reign of Love
TTITLE5=Yes
TTITLE6=Viva La Vida
TTITLE7=Violet Hill
TTITLE8=Strawberry Swing
TTITLE9=Death and All His Friends
TTITLE10=Lost？ (Alternate Version)
EXTD=YEAR: 2008
EXTT0=
EXTT1=
EXTT2=
EXTT3=
EXTT4=
EXTT5=
EXTT6=
EXTT7=
EXTT8=
EXTT9=
EXTT10=
PLAYORDER=
